<?xml version="1.0" standalone="no"?>
<!DOCTYPE svg PUBLIC "-//W3C//DTD SVG 20010904//EN"
 "http://www.w3.org/TR/2001/REC-SVG-20010904/DTD/svg10.dtd">
<svg version="1.0" xmlns="http://www.w3.org/2000/svg"
 width="553.000000pt" height="205.000000pt" viewBox="0 0 553.000000 205.000000"
 preserveAspectRatio="xMidYMid meet">
<metadata>
Created by potrace 1.16, written by Peter Selinger 2001-2019
</metadata>
<g transform="translate(0.000000,205.000000) scale(0.100000,-0.100000)"
fill="#000" stroke="none">
<path d="M3125 1976 c-87 -20 -109 -31 -155 -72 -59 -53 -81 -103 -82 -180 -1
-153 85 -223 360 -295 49 -13 96 -32 113 -46 75 -63 -7 -159 -117 -138 -48 8
-102 58 -110 101 -3 19 -10 37 -16 40 -5 3 -68 3 -140 -1 l-130 -8 6 -41 c10
-63 62 -161 107 -199 66 -57 130 -72 309 -72 149 0 157 1 215 28 33 15 76 44
96 64 l37 35 7 -41 c26 -152 180 -295 357 -331 l57 -11 -34 -44 c-63 -83 -79
-143 -80 -295 0 -156 15 -218 74 -302 79 -114 176 -159 357 -166 130 -5 196 5
268 38 59 28 123 85 158 139 l28 45 0 -107 0 -107 360 0 360 0 0 115 0 115
-215 0 -215 0 0 335 0 335 -145 0 -145 0 -1 -102 c0 -84 -2 -99 -12 -83 -29
47 -114 127 -160 150 -28 14 -77 30 -108 37 l-56 11 57 44 c124 93 227 257
257 412 21 105 8 212 -36 308 -79 169 -293 271 -508 243 -244 -32 -435 -161
-553 -375 -19 -33 -34 -61 -35 -62 -1 -2 -26 21 -57 51 -63 61 -113 83 -286
126 -160 40 -193 68 -139 118 51 48 163 17 188 -52 15 -41 12 -41 183 -29 l98
6 -6 39 c-17 102 -88 182 -190 214 -71 22 -246 27 -321 10z m1326 -84 c130
-34 236 -125 291 -249 29 -67 36 -206 14 -292 -74 -288 -357 -511 -651 -514
-148 -2 -266 44 -355 139 -77 82 -103 147 -108 270 -6 148 34 266 130 390 48
61 209 186 278 216 130 57 280 71 401 40z m-10 -1192 c82 -23 123 -103 122
-240 -1 -141 -41 -218 -127 -241 -93 -25 -178 19 -213 109 -22 56 -24 197 -4
255 34 101 119 145 222 117z"/>
<path d="M4291 1688 c-48 -13 -119 -64 -142 -101 -47 -78 1 -167 89 -167 16 0
55 9 87 20 73 25 92 25 105 0 9 -17 6 -25 -14 -45 -28 -28 -52 -31 -82 -11
-18 13 -24 11 -62 -17 -23 -18 -41 -38 -42 -45 0 -15 74 -51 106 -52 59 0 185
97 200 155 10 39 -4 90 -32 119 -40 39 -79 42 -166 12 -89 -31 -108 -32 -108
-8 0 39 61 67 87 41 8 -8 22 -3 52 22 45 36 48 41 27 58 -24 20 -70 28 -105
19z"/>
<path d="M3968 1472 c-21 -15 -37 -31 -38 -35 0 -4 34 -56 75 -115 54 -76 75
-114 73 -132 -4 -31 -38 -39 -62 -15 -15 16 -19 15 -56 -17 -45 -38 -46 -53
-7 -82 63 -46 167 -12 225 74 38 56 27 95 -66 230 -43 63 -85 116 -93 117 -8
1 -31 -10 -51 -25z"/>
<path d="M60 1520 l0 -450 145 0 145 0 0 180 0 180 29 0 c47 0 75 -34 165
-200 l84 -155 161 -3 c88 -1 161 0 161 3 0 4 -31 68 -70 143 -72 142 -114 203
-161 231 l-27 17 55 29 c95 49 140 136 130 247 -11 119 -75 193 -188 217 -29
6 -173 11 -339 11 l-290 0 0 -450z m490 247 c30 -15 45 -54 36 -90 -10 -43
-47 -59 -146 -65 l-90 -5 0 87 0 86 88 0 c50 0 98 -6 112 -13z"/>
<path d="M297 920 c-163 -26 -259 -122 -261 -261 -1 -141 91 -222 319 -279
105 -26 132 -37 163 -64 58 -51 0 -136 -93 -136 -64 0 -130 51 -141 107 -3 18
-10 36 -15 39 -5 3 -68 2 -140 -2 l-131 -7 6 -41 c10 -61 52 -146 94 -189 59
-61 123 -80 289 -85 126 -4 151 -2 214 18 61 18 81 30 130 79 l58 58 21 -29
c32 -44 118 -96 189 -114 47 -12 97 -15 190 -12 119 3 130 5 193 36 39 19 81
50 101 72 40 47 84 134 89 174 3 29 2 29 -119 66 l-122 37 -17 -49 c-34 -104
-123 -150 -219 -113 -76 29 -105 92 -105 231 0 98 20 171 57 206 79 75 197 61
249 -28 14 -24 32 -44 39 -44 20 0 226 48 233 54 9 10 -40 106 -80 157 -97
124 -342 163 -543 88 -41 -15 -76 -39 -117 -79 l-58 -56 -25 41 c-28 48 -80
87 -148 109 -58 20 -222 28 -300 16z m163 -185 c16 -9 36 -32 47 -56 l18 -41
98 4 97 5 -6 -51 c-4 -28 -10 -54 -13 -59 -4 -4 -29 2 -55 14 -27 11 -101 34
-165 50 -151 38 -170 46 -178 77 -14 57 86 94 157 57z"/>
<path d="M3060 919 c-111 -19 -220 -88 -282 -179 -16 -24 -17 -22 -17 73 l-1
97 -145 0 -145 0 0 -155 0 -155 -145 0 -145 0 0 155 0 155 -145 0 -145 0 0
-450 0 -450 145 0 145 0 0 180 0 180 145 0 145 0 0 -180 0 -180 145 0 145 0 0
102 0 101 31 -47 c39 -58 103 -108 177 -138 51 -20 74 -23 212 -23 188 0 237
15 328 100 96 89 132 185 132 355 0 167 -34 266 -123 352 -76 74 -165 106
-307 113 -52 2 -120 0 -150 -6z m172 -219 c75 -21 128 -115 128 -229 0 -60
-20 -153 -40 -186 -39 -63 -129 -90 -205 -61 -84 33 -117 98 -117 236 0 133
29 196 106 231 47 21 76 23 128 9z"/>
</g>
</svg>
