<?xml version="1.0" encoding="iso-8859-1"?>
<!-- Generator: Adobe Illustrator 19.0.0, SVG Export Plug-In . SVG Version: 6.00 Build 0)  -->
<svg version="1.1" id="Layer_1" xmlns="http://www.w3.org/2000/svg" xmlns:xlink="http://www.w3.org/1999/xlink" x="0px" y="0px"
	 viewBox="0 0 512 512" style="enable-background:new 0 0 512 512;" xml:space="preserve">
<path style="fill:#261D16;" d="M99.163,446.428v-81.899l-43.89-81.899c-19.193,5.11-35.707,16.784-46.996,32.469
	c-0.003,0.511-0.02,1.02-0.02,1.532c0,45.657,12.364,88.42,33.907,125.148c10.666,4.839,22.5,7.556,34.976,7.556
	C84.76,449.333,92.138,448.312,99.163,446.428z"/>
<g>
	<path style="fill:#4D3A2D;" d="M445.007,193.183C403.086,129.142,332.429,90.908,256,90.908
		c-75.103,0-145.079,37.209-187.184,99.533l-36.495-24.655C82.628,91.322,166.246,46.865,256,46.865
		c91.337,0,175.77,45.68,225.857,122.196L445.007,193.183z"/>
	<path style="fill:#4D3A2D;" d="M155.19,442.726c1.568,5.85-1.936,11.918-7.786,13.485l-31.907,8.55
		c-5.85,1.567-11.918-1.936-13.485-7.786L52.47,272.079c-1.568-5.85,1.936-11.918,7.786-13.485l31.907-8.55
		c5.85-1.568,11.918,1.936,13.485,7.786L155.19,442.726z"/>
</g>
<path style="fill:#261D16;" d="M412.837,446.428v-81.899l43.89-81.899c19.193,5.11,35.707,16.784,46.996,32.469
	c0.003,0.511,0.02,1.02,0.02,1.532c0,45.657-12.364,88.42-33.906,125.148c-10.666,4.839-22.5,7.556-34.976,7.556
	C427.24,449.333,419.862,448.312,412.837,446.428z"/>
<path style="fill:#585046;" d="M437.019,135.61C388.666,87.258,324.379,60.629,256,60.629S123.334,87.258,74.981,135.61
	C26.63,183.961,0,248.249,0,316.629c0,41.394,9.774,81.279,28.202,117.047c7.933,5.62,16.87,9.91,26.495,12.546
	c-24.148-37.379-38.181-81.876-38.181-129.592C16.516,184.577,123.948,77.145,256,77.145s239.484,107.432,239.484,239.484
	c0,47.716-14.033,92.213-38.181,129.592c9.626-2.637,18.561-6.926,26.495-12.546C502.226,397.908,512,358.023,512,316.629
	C512,248.249,485.371,183.961,437.019,135.61z"/>
<path style="fill:#261D16;" d="M66.993,193.183C108.914,129.142,179.571,90.908,256,90.908c75.103,0,145.079,37.209,187.184,99.533
	l36.495-24.655C429.372,91.322,345.754,46.865,256,46.865c-91.337,0-175.77,45.68-225.857,122.196L66.993,193.183z"/>
<path style="fill:#4D3A2D;" d="M356.81,442.726c-1.568,5.85,1.936,11.918,7.786,13.485l31.907,8.55
	c5.85,1.567,11.918-1.936,13.485-7.786l49.543-184.896c1.567-5.85-1.936-11.918-7.786-13.485l-31.907-8.55
	c-5.85-1.568-11.918,1.936-13.485,7.786L356.81,442.726z"/>
<g>
</g>
<g>
</g>
<g>
</g>
<g>
</g>
<g>
</g>
<g>
</g>
<g>
</g>
<g>
</g>
<g>
</g>
<g>
</g>
<g>
</g>
<g>
</g>
<g>
</g>
<g>
</g>
<g>
</g>
</svg>
